<?xml version="1.0" encoding="UTF-8" standalone="no"?>
<svg
   xmlns:dc="http://purl.org/dc/elements/1.1/"
   xmlns:cc="http://creativecommons.org/ns#"
   xmlns:rdf="http://www.w3.org/1999/02/22-rdf-syntax-ns#"
   xmlns:svg="http://www.w3.org/2000/svg"
   xmlns="http://www.w3.org/2000/svg"
   xmlns:sodipodi="http://sodipodi.sourceforge.net/DTD/sodipodi-0.dtd"
   xmlns:inkscape="http://www.inkscape.org/namespaces/inkscape"
   viewBox="0 0 50 50"
   version="1.1"
   fill="#d7f2f7"
   id="svg_icon.primary"
   x="68"
   y="32"
   width="24"
   height="24"
   sodipodi:docname="logo.svg"
   inkscape:version="0.92.3 (2405546, 2018-03-11)"
   inkscape:export-filename="/home/robert/Projects/example-arduino-server/app/images/logo-96.png"
   inkscape:export-xdpi="384"
   inkscape:export-ydpi="384">
  <metadata
     id="metadata10">
    <rdf:RDF>
      <cc:Work
         rdf:about="">
        <dc:format>image/svg+xml</dc:format>
        <dc:type
           rdf:resource="http://purl.org/dc/dcmitype/StillImage" />
      </cc:Work>
    </rdf:RDF>
  </metadata>
  <defs
     id="defs8" />
  <sodipodi:namedview
     pagecolor="#ffffff"
     bordercolor="#666666"
     borderopacity="1"
     objecttolerance="10"
     gridtolerance="10"
     guidetolerance="10"
     inkscape:pageopacity="0"
     inkscape:pageshadow="2"
     inkscape:window-width="1920"
     inkscape:window-height="1020"
     id="namedview6"
     showgrid="false"
     inkscape:zoom="9.8333333"
     inkscape:cx="-2.4666449"
     inkscape:cy="8.1771407"
     inkscape:window-x="0"
     inkscape:window-y="0"
     inkscape:window-maximized="1"
     inkscape:current-layer="surface1" />
  <g
     id="surface1"
     fill="#d7f2f7">
    <path
       d="M 1 0 C 0.449219 0 0 0.449219 0 1 L 0 17 C 0 17.550781 0.449219 18 1 18 L 8 18 L 8 32 L 1 32 C 0.449219 32 0 32.445313 0 33 L 0 49 C 0 49.554688 0.449219 50 1 50 L 17 50 C 17.550781 50 18 49.554688 18 49 L 18 42 L 32 42 L 32 49 C 32 49.554688 32.445313 50 33 50 L 49 50 C 49.554688 50 50 49.554688 50 49 L 50 33 C 50 32.445313 49.554688 32 49 32 L 42 32 L 42 18 L 49 18 C 49.554688 18 50 17.550781 50 17 L 50 1 C 50 0.449219 49.554688 0 49 0 L 33 0 C 32.445313 0 32 0.449219 32 1 L 32 8 L 18 8 L 18 1 C 18 0.449219 17.550781 0 17 0 Z M 18 10 L 32 10 L 32 17 C 32 17.550781 32.445313 18 33 18 L 40 18 L 40 32 L 33 32 C 32.445313 32 32 32.445313 32 33 L 32 40 L 18 40 L 18 33 C 18 32.445313 17.550781 32 17 32 L 10 32 L 10 18 L 17 18 C 17.550781 18 18 17.550781 18 17 Z M 4.59375 34 L 7.40625 34 L 2 39.40625 L 2 36.59375 Z M 9.59375 34 L 12.375 34 C 12.347656 34.035156 12.34375 34.0625 12.3125 34.09375 L 2 44.40625 L 2 41.59375 Z M 14.59375 34 L 16 34 L 16 35.40625 L 3.40625 48 L 2 48 L 2 46.59375 Z M 16 37.65625 L 16 40.40625 L 8.40625 48 L 5.625 48 C 5.652344 47.964844 5.65625 47.9375 5.6875 47.90625 L 15.78125 37.78125 C 15.84375 37.71875 15.929688 37.699219 16 37.65625 Z M 16 42.59375 L 16 45.40625 L 13.40625 48 L 10.625 48 C 10.652344 47.964844 10.65625 47.9375 10.6875 47.90625 Z "
       fill="#d7f2f7"
       id="path2"
       style="fill:#c9c9c9;fill-opacity:1" />
  </g>
</svg>
